<svg width="337.2mm" height="224.8mm" viewBox="0 0 337.2 224.8" xmlns="http://www.w3.org/2000/svg" version="1.1" preserveAspectRatio="xMidYMid meet"><g id="svgGroup" stroke-linecap="round" fill-rule="evenodd" font-size="9pt" stroke="#000" stroke-width="0.25mm" fill="none" style="stroke:#000;stroke-width:0.25mm;fill:none"><path d="M 0 132.2 L 0 152.6 L 6.2 152.6 L 6.2 165 L 0 165 L 0 177.4 L 6.2 177.4 L 6.2 189.8 L 0 189.8 L 0 202.2 L 6.2 202.2 L 6.2 214.6 L 0 214.6 L 0 224.8 L 12.8 224.8 L 12.8 218.6 L 25.2 218.6 L 25.2 224.8 L 37.6 224.8 L 37.6 218.6 L 50 218.6 L 50 224.8 L 62.4 224.8 L 62.4 218.6 L 74.8 218.6 L 74.8 224.8 L 87.2 224.8 L 87.2 218.6 L 99.6 218.6 L 99.6 224.8 L 112.4 224.8 L 112.4 202.2 L 112.4 177.4 L 112.4 152.6 L 112.4 119.8 M 118.6 189.8 L 106.2 189.8 L 106.2 177.4 L 118.6 177.4 M 118.6 214.6 L 106.2 214.6 L 106.2 202.2 L 118.6 202.2 M 118.6 165 L 106.2 165 L 106.2 152.6 L 118.6 152.6 M 74.8 136.2 L 74.8 148.6 L 62.4 148.6 L 62.4 136.2 M 50 136.2 L 50 148.6 L 37.6 148.6 L 37.6 136.2 M 25.2 136.2 L 25.2 148.6 L 12.8 148.6 L 12.8 136.2 M 99.6 136.2 L 99.6 148.6 L 87.2 148.6 L 87.2 136.2 M 99.6 142.4 112.4 142.4 M 74.8 142.4 87.2 142.4 M 50 142.4 62.4 142.4 M 25.2 142.4 37.6 142.4 M 0 142.4 12.8 142.4" id="front_outsideCutPath" stroke="#FF0000" stroke-width="0.1" style="stroke:#FF0000;stroke-width:0.1" vector-effect="non-scaling-stroke"/><path d="M 224.8 199.6 L 224.8 214.6 L 218.6 214.6 L 218.6 224.8 L 212 224.8 L 212 218.6 L 199.6 218.6 L 199.6 224.8 L 187.2 224.8 L 187.2 218.6 L 174.8 218.6 L 174.8 224.8 L 162.4 224.8 L 162.4 218.6 L 150 218.6 L 150 224.8 L 137.6 224.8 L 137.6 218.6 L 125.2 218.6 L 125.2 224.8 L 118.6 224.8 L 118.6 214.6 M 224.8 150 L 224.8 165 L 218.6 165 L 218.6 177.4 L 224.8 177.4 M 224.8 174.8 L 224.8 189.8 L 218.6 189.8 L 218.6 202.2 L 224.8 202.2 M 212 136.2 L 212 148.6 L 199.6 148.6 L 199.6 136.2 M 187.2 136.2 L 187.2 148.6 L 174.8 148.6 L 174.8 136.2 M 162.4 136.2 L 162.4 148.6 L 150 148.6 L 150 136.2 M 137.6 136.2 L 137.6 148.6 L 125.2 148.6 L 125.2 136.2 M 218.6 132.2 L 218.6 152.6 L 224.8 152.6 M 118.6 152.6 118.6 132.2 M 118.6 165 118.6 177.4 M 118.6 189.8 118.6 202.2 M 212 142.4 218.6 142.4 M 187.2 142.4 199.6 142.4 M 162.4 142.4 174.8 142.4 M 137.6 142.4 150 142.4 M 118.6 142.4 125.2 142.4" id="left_outsideCutPath" stroke="#FF0000" stroke-width="0.1" style="stroke:#FF0000;stroke-width:0.1" vector-effect="non-scaling-stroke"/><path d="M 324.4 106.2 L 324.4 118.6 L 331 118.6 L 331 125.2 L 337.2 125.2 L 337.2 137.6 L 331 137.6 L 331 150 L 337.2 150 L 337.2 162.4 L 331 162.4 L 331 174.8 L 337.2 174.8 L 337.2 187.2 L 331 187.2 L 331 199.6 L 337.2 199.6 L 337.2 212 L 331 212 L 331 218.6 L 324.4 218.6 L 324.4 224.8 L 312 224.8 L 312 218.6 L 299.6 218.6 L 299.6 224.8 L 287.2 224.8 L 287.2 218.6 L 274.8 218.6 L 274.8 224.8 L 262.4 224.8 L 262.4 218.6 L 250 218.6 L 250 224.8 L 237.6 224.8 L 237.6 218.6 L 231 218.6 L 231 212 L 224.8 212 M 224.8 119.8 L 224.8 137.6 L 231 137.6 L 231 150 L 224.8 150 M 312 106.2 L 312 118.6 L 299.6 118.6 L 299.6 106.2 M 287.2 106.2 L 287.2 118.6 L 274.8 118.6 L 274.8 106.2 M 262.4 106.2 L 262.4 118.6 L 250 118.6 L 250 106.2 M 224.8 125.2 L 231 125.2 L 231 118.6 L 237.6 118.6 L 237.6 106.2 M 224.8 174.8 L 231 174.8 L 231 162.4 L 224.8 162.4 M 224.8 199.6 L 231 199.6 L 231 187.2 L 224.8 187.2 M 312 112.4 324.4 112.4 M 287.2 112.4 299.6 112.4 M 262.4 112.4 274.8 112.4 M 237.6 112.4 250 112.4" id="top_outsideCutPath" stroke="#FF0000" stroke-width="0.1" style="stroke:#FF0000;stroke-width:0.1" vector-effect="non-scaling-stroke"/><path d="M 0 132.2 L 6.2 132.2 L 6.2 119.8 L 0 119.8 L 0 107.4 L 6.2 107.4 L 6.2 95 L 0 95 L 0 82.6 L 6.2 82.6 L 6.2 70.2 L 0 70.2 L 0 60 L 12.8 60 L 12.8 66.2 L 25.2 66.2 L 25.2 60 L 37.6 60 L 37.6 66.2 L 50 66.2 L 50 60 L 62.4 60 L 62.4 66.2 L 74.8 66.2 L 74.8 60 L 87.2 60 L 87.2 66.2 L 99.6 66.2 L 99.6 60 L 112.4 60 L 112.4 70.2 L 112.4 95 L 112.4 119.8 M 118.6 107.4 L 106.2 107.4 L 106.2 95 L 118.6 95 M 118.6 82.6 L 106.2 82.6 L 106.2 70.2 L 118.6 70.2 M 118.6 132.2 L 106.2 132.2 L 106.2 119.8 L 118.6 119.8 M 12.8 136.2 25.2 136.2 M 37.6 136.2 50 136.2 M 62.4 136.2 74.8 136.2 M 87.2 136.2 99.6 136.2" id="back_outsideCutPath" stroke="#FF0000" stroke-width="0.1" style="stroke:#FF0000;stroke-width:0.1" vector-effect="non-scaling-stroke"/><path d="M 118.6 70.2 L 118.6 60 L 125.2 60 L 125.2 66.2 L 137.6 66.2 L 137.6 60 L 150 60 L 150 66.2 L 162.4 66.2 L 162.4 60 L 174.8 60 L 174.8 66.2 L 187.2 66.2 L 187.2 60 L 199.6 60 L 199.6 66.2 L 212 66.2 L 212 60 L 218.6 60 L 218.6 70.2 L 224.8 70.2 M 224.8 87.2 L 224.8 107.4 L 218.6 107.4 L 218.6 119.8 L 224.8 119.8 M 224.8 62.4 L 224.8 82.6 L 218.6 82.6 L 218.6 95 L 224.8 95 M 118.6 82.6 118.6 95 M 118.6 107.4 118.6 119.8 M 125.2 136.2 137.6 136.2 M 150 136.2 162.4 136.2 M 174.8 136.2 187.2 136.2 M 199.6 136.2 212 136.2 M 218.6 132.2 224.8 132.2" id="right_outsideCutPath" stroke="#FF0000" stroke-width="0.1" style="stroke:#FF0000;stroke-width:0.1" vector-effect="non-scaling-stroke"/><path d="M 224.8 62.4 L 231 62.4 L 231 50 L 224.8 50 L 224.8 37.6 L 231 37.6 L 231 25.2 L 224.8 25.2 L 224.8 12.8 L 231 12.8 L 231 6.2 L 237.6 6.2 L 237.6 0 L 250 0 L 250 6.2 L 262.4 6.2 L 262.4 0 L 274.8 0 L 274.8 6.2 L 287.2 6.2 L 287.2 0 L 299.6 0 L 299.6 6.2 L 312 6.2 L 312 0 L 324.4 0 L 324.4 6.2 L 331 6.2 L 331 12.8 L 337.2 12.8 L 337.2 25.2 L 331 25.2 L 331 37.6 L 337.2 37.6 L 337.2 50 L 331 50 L 331 62.4 L 337.2 62.4 L 337.2 74.8 L 331 74.8 L 331 87.2 L 337.2 87.2 L 337.2 99.6 L 331 99.6 L 331 106.2 L 324.4 106.2 M 224.8 87.2 L 231 87.2 L 231 74.8 L 224.8 74.8 M 237.6 106.2 L 231 106.2 L 231 99.6 L 224.8 99.6 M 250 106.2 262.4 106.2 M 274.8 106.2 287.2 106.2 M 299.6 106.2 312 106.2" id="bottom_outsideCutPath" stroke="#FF0000" stroke-width="0.1" style="stroke:#FF0000;stroke-width:0.1" vector-effect="non-scaling-stroke"/></g></svg>